<svg width="42" height="42" viewBox="0 0 42 42" fill="none" xmlns="http://www.w3.org/2000/svg">
<path d="M21 30.086L26.789 24.2987L25.55 23.0597L21.875 26.7348V18.5097H20.125V26.7348L16.45 23.0597L15.211 24.2987L21 30.086ZM8.75 13.664V32.1737C8.75 32.4876 8.85092 32.7454 9.05275 32.9473C9.25458 33.1491 9.51242 33.25 9.82625 33.25H32.1737C32.4876 33.25 32.7454 33.1491 32.9473 32.9473C33.1491 32.7454 33.25 32.4876 33.25 32.1737V13.664H8.75ZM10.0975 35C9.3135 35 8.60125 34.6798 7.96075 34.0392C7.32025 33.3976 7 32.6859 7 31.9043V13.1023C7 12.7604 7.05425 12.4396 7.16275 12.1397C7.27242 11.8387 7.43575 11.5617 7.65275 11.3085L10.3793 8.0325C10.6324 7.69183 10.9492 7.43458 11.3295 7.26075C11.7098 7.08692 12.1182 7 12.5545 7H29.379C29.8153 7 30.2295 7.08692 30.6215 7.26075C31.0123 7.43575 31.3343 7.693 31.5875 8.0325L34.3473 11.375C34.5643 11.6282 34.7276 11.9111 34.8372 12.2238C34.9457 12.5353 35 12.8619 35 13.2038V31.9025C35 32.6842 34.6798 33.3958 34.0392 34.0375C33.3976 34.678 32.6859 34.9983 31.9043 34.9983L10.0975 35ZM9.415 11.914H32.55L30.2225 9.121C30.1093 9.00783 29.9798 8.918 29.834 8.8515C29.6882 8.78383 29.5365 8.75 29.379 8.75H12.586C12.4297 8.75 12.278 8.78383 12.131 8.8515C11.9863 8.918 11.858 9.00783 11.746 9.121L9.415 11.914Z" fill="black"/>
</svg>
