<svg width="34" height="32" viewBox="0 0 34 32" fill="none" xmlns="http://www.w3.org/2000/svg">
<path d="M1.54024 32H23.1036C23.9528 32 24.6438 31.327 24.6438 30.5V23C24.6438 22.99 24.6387 22.982 24.6377 22.972C24.6942 22.937 24.7527 22.904 24.8081 22.867L33.0084 30.853C33.0557 30.9008 33.1123 30.939 33.1749 30.9653C33.2375 30.9916 33.3048 31.0054 33.373 31.0061C33.4411 31.0068 33.5088 30.9942 33.5719 30.9692C33.635 30.9441 33.6924 30.9071 33.7407 30.8602C33.789 30.8133 33.8272 30.7575 33.8531 30.6961C33.879 30.6347 33.8921 30.5689 33.8916 30.5025C33.8911 30.4361 33.877 30.3705 33.8502 30.3095C33.8234 30.2484 33.7843 30.1932 33.7354 30.147L25.6101 22.234C26.2768 21.6282 26.8086 20.8953 27.1723 20.0809C27.536 19.2666 27.7239 18.3881 27.7243 17.5C27.7233 16.4088 27.44 15.3354 26.9005 14.3791C26.3611 13.4227 25.5828 12.6141 24.6377 12.028C24.6387 12.018 24.6438 12.01 24.6438 12V9.5C24.6438 9.483 24.6356 9.469 24.6346 9.453C24.6326 9.43 24.6264 9.41 24.6213 9.388C24.6051 9.31853 24.5736 9.25334 24.5288 9.197C24.5217 9.188 24.5227 9.177 24.5155 9.168L16.3009 0.168C16.2978 0.165 16.2937 0.165 16.2906 0.162C16.2281 0.0980553 16.149 0.0517567 16.0616 0.028C16.0421 0.022 16.0247 0.02 16.0041 0.017C15.9743 0.012 15.9466 0 15.9158 0H1.54024C0.691055 0 0 0.673 0 1.5V30.5C0 31.327 0.691055 32 1.54024 32ZM26.6975 17.5C26.6975 20.533 24.1633 23 21.05 23C17.9366 23 15.4024 20.533 15.4024 17.5C15.4024 14.467 17.9366 12 21.05 12C24.1633 12 26.6975 14.467 26.6975 17.5ZM16.4292 1.815L22.9876 9H16.9426C16.7167 9 16.4292 8.58 16.4292 8.25V1.815ZM1.02683 1.5C1.02683 1.36739 1.08092 1.24021 1.1772 1.14645C1.27349 1.05268 1.40407 1 1.54024 1H15.4024V8.25C15.4024 9.059 16.075 10 16.9426 10H23.617V11.501C22.3767 10.9957 21.0083 10.8685 19.6923 11.1361C18.3763 11.4038 17.1745 12.0536 16.2454 13H5.64755C5.51138 13 5.38079 13.0527 5.28451 13.1464C5.18823 13.2402 5.13413 13.3674 5.13413 13.5C5.13413 13.6326 5.18823 13.7598 5.28451 13.8536C5.38079 13.9473 5.51138 14 5.64755 14H15.4353C14.8402 14.9008 14.4851 15.9319 14.4023 17H5.64755C5.51138 17 5.38079 17.0527 5.28451 17.1464C5.18823 17.2402 5.13413 17.3674 5.13413 17.5C5.13413 17.6326 5.18823 17.7598 5.28451 17.8536C5.38079 17.9473 5.51138 18 5.64755 18H14.4012C14.4846 19.068 14.8396 20.099 15.4342 21H5.64755C5.51138 21 5.38079 21.0527 5.28451 21.1464C5.18823 21.2402 5.13413 21.3674 5.13413 21.5C5.13413 21.6326 5.18823 21.7598 5.28451 21.8536C5.38079 21.9473 5.51138 22 5.64755 22H16.1725C16.1941 22 16.2126 21.991 16.2341 21.988C17.1628 22.9384 18.366 23.5916 19.6844 23.8613C21.0028 24.1309 22.3742 24.0042 23.617 23.498V30.5C23.617 30.6326 23.5629 30.7598 23.4666 30.8536C23.3704 30.9473 23.2398 31 23.1036 31H1.54024C1.25273 31 1.02683 30.78 1.02683 30.5V1.5Z" fill="black"/>
<path d="M5.64769 10H11.8087C11.9448 10 12.0754 9.94732 12.1717 9.85355C12.268 9.75979 12.3221 9.63261 12.3221 9.5C12.3221 9.36739 12.268 9.24021 12.1717 9.14645C12.0754 9.05268 11.9448 9 11.8087 9H5.64769C5.51153 9 5.38094 9.05268 5.28465 9.14645C5.18837 9.24021 5.13428 9.36739 5.13428 9.5C5.13428 9.63261 5.18837 9.75979 5.28465 9.85355C5.38094 9.94732 5.51153 10 5.64769 10ZM5.64769 26H18.9964C19.1326 26 19.2632 25.9473 19.3595 25.8536C19.4558 25.7598 19.5099 25.6326 19.5099 25.5C19.5099 25.3674 19.4558 25.2402 19.3595 25.1464C19.2632 25.0527 19.1326 25 18.9964 25H5.64769C5.51153 25 5.38094 25.0527 5.28465 25.1464C5.18837 25.2402 5.13428 25.3674 5.13428 25.5C5.13428 25.6326 5.18837 25.7598 5.28465 25.8536C5.38094 25.9473 5.51153 26 5.64769 26Z" fill="black"/>
</svg>
